<?xml version="1.0" encoding="utf-8"?><svg version="1.1" id="Layer_1" xmlns="http://www.w3.org/2000/svg" xmlns:xlink="http://www.w3.org/1999/xlink" x="0px" y="0px" viewBox="0 0 122.88 122.88" style="enable-background:new 0 0 122.88 122.88" xml:space="preserve"><style type="text/css">.st0{fill-rule:evenodd;clip-rule:evenodd;fill:#D8453E;} .st1{fill-rule:evenodd;clip-rule:evenodd;fill:#393939;}</style><g><path class="st0" d="M61.44,0c33.93,0,61.44,27.51,61.44,61.44s-27.51,61.44-61.44,61.44S0,95.37,0,61.44S27.51,0,61.44,0L61.44,0z M61.44,14.43c25.96,0,47.01,21.05,47.01,47.01s-21.05,47.01-47.01,47.01S14.43,87.4,14.43,61.44S35.48,14.43,61.44,14.43 L61.44,14.43z"/><path class="st1" d="M60.99,81.97L60.99,81.97c0.78,0,1.51-0.18,2.15-0.51l-7.09-12.29C56,71.77,56,74.38,56,76.99 C56.01,79.73,58.25,81.97,60.99,81.97L60.99,81.97L60.99,81.97z M65.51,52.69C65,49.1,64.26,45.57,63.2,42.1h0.99 c2.16,0,3.93-1.77,3.93-3.93l0,0c0-2.16-1.77-3.93-3.93-3.93h-1.3l-1.74-22.78l-1.66,22.77h-1.3c-1.05,0-2,0.41-2.71,1.09 L65.51,52.69L65.51,52.69z M68.29,48.55l35.77-7.07c2.05-0.5,3.78-0.54,5.04-0.02c1.15,0.47,1.9,1.42,2.13,2.9 c0.92,5.85-4.52,8.47-9.6,9.92c-1.46,0.42-2.88,0.73-4.12,1.01c-6.51,1.44-11.34,1.23-17.86-0.48c-3.99-1.05-7.61-2.36-11.37-2.86 V48.55L68.29,48.55L68.29,48.55z M88.18,13.58c0.5-0.77,1.54-0.99,2.3-0.49c0.77,0.51,0.99,1.54,0.49,2.3 c-2.38,3.64-4.14,7.38-5.35,11.11c-1.29,3.95-1.95,7.91-2.09,11.75c-0.03,0.62-0.37,1.15-0.89,1.42l0,0L69.11,46.8 c-0.81,0.43-1.82,0.11-2.25-0.7c-0.43-0.81-0.11-1.82,0.7-2.25l12.69-6.68c0.22-3.86,0.93-7.78,2.2-11.7 C83.75,21.48,85.63,17.48,88.18,13.58L88.18,13.58L88.18,13.58z M67.78,56.63c0.42-0.34,0.99-0.47,1.54-0.3l17.92,5.64 c0.62,0.2,1.04,0.71,1.15,1.31l0,0l2.31,13.23l10.31,7.09c0.76,0.52,0.96,1.55,0.44,2.32c-0.52,0.76-1.55,0.96-2.32,0.44 L88.3,78.92c-0.39-0.24-0.68-0.64-0.77-1.14l-2.26-12.92L69.7,59.95L67.78,56.63L67.78,56.63z M76.98,72.56l6.03,7.35 c0.43,0.53,0.49,1.24,0.2,1.81l0,0l-0.44,0.88L76.98,72.56L76.98,72.56z M52.18,64.89c0.28-0.33,0.66-0.53,1.05-0.59l1.54,2.67 l-0.03,0.03L43.12,81.19l7.59,15.06c0.41,0.82,0.08,1.82-0.74,2.24c-0.07,0.04-0.15,0.07-0.22,0.09 c-3.97,1.45-7.54,3.19-10.69,5.23c-3.15,2.04-5.89,4.38-8.21,7.03c-0.6,0.69-1.66,0.76-2.35,0.15c-0.69-0.6-0.76-1.66-0.16-2.35 c2.53-2.89,5.5-5.43,8.9-7.63c2.9-1.89,6.12-3.52,9.65-4.92l-7.25-14.38l0,0c-0.28-0.57-0.23-1.29,0.2-1.81L52.18,64.89 L52.18,64.89L52.18,64.89z M51.1,60.6l-13.5,4.25l-2.26,12.92c-0.09,0.49-0.38,0.9-0.77,1.14l-10.83,7.44 c-0.76,0.52-1.8,0.33-2.32-0.44c-0.52-0.76-0.33-1.8,0.44-2.32l10.31-7.09l2.31-13.23l0,0c0.11-0.59,0.53-1.11,1.15-1.31 l13.76-4.33L51.1,60.6L51.1,60.6z M42.8,46.22l-23.98-4.74c-2.05-0.5-3.78-0.54-5.04-0.02c-1.15,0.47-1.9,1.42-2.13,2.9 c-0.92,5.85,4.51,8.46,9.59,9.92c1.46,0.42,2.88,0.73,4.12,1.01c6.51,1.44,11.34,1.23,17.86-0.48c1.34-0.35,2.64-0.73,3.91-1.1 L42.8,46.22L42.8,46.22z"/><polygon class="st0" points="30.43,24.8 44.66,16.58 92.45,99.36 78.22,107.58 30.43,24.8"/></g></svg>